<svg width="160" height="62" viewBox="0 0 160 62" fill="none" xmlns="http://www.w3.org/2000/svg">
<g clip-path="url(#clip0_1130_5243)">
<path d="M38.8672 32.4567L39.7704 22.8664C39.7704 13.2723 32.6106 5.31042 23.2161 3.76844L19.8852 0L16.5543 3.76844C7.15975 5.31418 0 13.2723 0 22.8664L0.899311 32.4454L5.96324 37.6205L6.06359 38.6623L1.10002 34.5591L1.20423 35.6761L6.26816 40.8549L6.36851 41.8966L1.40107 37.7935L1.61722 40.1102C1.92985 43.4499 3.41198 46.5865 5.81271 48.9935L16.1722 59.3849L13.7946 32.7238L6.53834 28.8688C5.41516 28.2708 4.67796 27.1576 4.58533 25.9127L4.43094 23.8329L15.4272 26.8755C16.8746 27.2742 17.7971 28.6544 17.5848 30.1062L16.4462 38.0116L19.8775 41.1933L23.3087 38.0116L22.1701 30.1062C21.9617 28.6544 22.8842 27.2779 24.3277 26.8755L35.324 23.8329L35.1696 25.9127C35.077 27.1576 34.3436 28.2708 33.2166 28.8688L25.9604 32.7238L23.5828 59.3849L33.9422 48.9935C36.343 46.5865 37.8212 43.4537 38.1377 40.1102L38.3539 37.801L33.398 41.8966L33.4984 40.8549L38.5546 35.6874L38.6588 34.5704L33.7029 38.6623L33.8033 37.6205L38.8556 32.453L38.8672 32.4567Z" fill="#070909"/>
<path d="M154.97 12.1855V30.4222L142.392 12.1855H137.359V37.7184H142.392V19.4817L154.97 37.7184H160V12.1855H154.97Z" fill="#070909"/>
<path d="M76.9855 12.1855H71.9563V37.7184H76.9855V12.1855Z" fill="#070909"/>
<path d="M66.9272 12.1855H59.3815H54.3485H46.8027V15.9352H54.3485V37.7184H59.3815V15.9352H66.9272V12.1855Z" fill="#070909"/>
<path d="M102.143 12.1855H94.5973H89.5643H82.0186V15.9352H89.5643V37.7184H94.5973V15.9352H102.143V12.1855Z" fill="#070909"/>
<path d="M107.172 17.3455V37.7147H112.202V26.8306H124.78V37.7147H129.809V17.3455C129.809 14.4948 127.44 12.1855 124.514 12.1855H112.464C109.538 12.1855 107.168 14.4948 107.168 17.3455H107.172ZM112.202 23.0809V18.1428C112.202 16.9205 113.217 15.9314 114.471 15.9314H122.511C123.765 15.9314 124.78 16.9205 124.78 18.1428V23.0809H112.202Z" fill="#070909"/>
<path d="M60.7402 46.5682C60.6823 46.5832 60.6283 46.6021 60.5781 46.6321C60.5279 46.6622 60.4546 46.7412 60.3619 46.8766C60.2655 47.012 60.1342 47.2151 59.9605 47.4934C59.7869 47.7679 59.5476 48.1516 59.2426 48.6405C58.9377 49.1294 58.5517 49.7462 58.0886 50.4871C57.6216 51.2317 57.058 52.1344 56.3903 53.1949C55.9966 53.8305 55.684 54.3909 55.4408 54.8723C55.2015 55.3537 55.024 55.7561 54.9082 56.0833C54.7615 56.4669 54.6689 56.8054 54.6264 57.1025C54.584 57.3282 54.5222 57.535 54.4412 57.7193C54.3601 57.9036 54.2868 58.0653 54.2134 58.2083C54.1247 58.3624 54.0243 58.5054 53.9085 58.6332C53.7927 58.731 53.704 58.7799 53.6461 58.7799C53.5882 58.7799 53.5496 58.7536 53.538 58.7047C53.5226 58.6558 53.5148 58.6144 53.5148 58.5881V58.5655C53.4724 58.4377 53.4492 58.2947 53.4492 58.1406C53.4492 57.9149 53.484 57.6479 53.5573 57.3432C53.6306 57.0386 53.7233 56.7152 53.8391 56.3767C53.9548 56.0382 54.0938 55.6922 54.252 55.3462C54.4103 55.0002 54.5724 54.6542 54.7306 54.3157C55.1089 53.5372 55.5373 52.7211 56.0159 51.8749C56.4366 51.1941 56.8149 50.5661 57.1507 49.9831C57.4865 49.4039 57.7759 48.8849 58.023 48.4336C58.297 47.9221 58.544 47.4483 58.764 47.012C58.791 46.9556 58.8065 46.9217 58.8065 46.9067C58.8065 46.8916 58.791 46.8841 58.764 46.8841C58.7486 46.8841 58.737 46.8841 58.7332 46.8954C58.7254 46.9029 58.7139 46.9067 58.7023 46.9067C58.6868 46.9217 58.6714 46.9293 58.6598 46.9293C57.7451 47.0722 57.0272 47.1624 56.5138 47.2038C55.9966 47.2452 55.6184 47.2677 55.3714 47.2677C55.2131 47.2677 55.0549 47.2602 54.9043 47.2452C54.7538 47.2301 54.6766 47.1737 54.6766 47.0759C54.6766 47.0045 54.7422 46.8804 54.8735 46.7036C55.0047 46.5268 55.1938 46.4253 55.4408 46.3952H56.0391C56.1935 46.3952 56.3633 46.4027 56.5524 46.4178C56.7107 46.4178 57.004 46.399 57.4247 46.3651C57.8454 46.3313 58.4475 46.241 59.2349 46.1019C59.2504 46.1019 59.2697 46.0943 59.3005 46.0793C59.343 46.053 59.3816 46.0229 59.4086 45.9928C59.4511 45.9627 59.4897 45.9063 59.5167 45.8235C59.5437 45.737 59.5784 45.6505 59.6132 45.5565C59.6479 45.4663 59.6981 45.3835 59.756 45.3121C59.8139 45.2406 59.8949 45.2068 59.9953 45.2068C60.0377 45.2068 60.1574 45.2481 60.3542 45.3346C60.5511 45.4211 60.7132 45.5528 60.8444 45.737C60.8444 45.7521 60.8598 45.7671 60.8869 45.7784C60.9023 45.7935 60.9525 45.801 61.0413 45.801C61.6935 45.6731 62.3111 45.5678 62.8939 45.4813C63.4034 45.4098 63.909 45.3421 64.4185 45.2782C64.928 45.2143 65.3255 45.1767 65.6189 45.1616H65.835C65.9662 45.1616 66.109 45.1729 66.2596 45.1917C66.414 45.2143 66.5491 45.2444 66.6726 45.2857C66.7961 45.3271 66.8578 45.391 66.8578 45.4775C66.8578 45.564 66.8231 45.6769 66.7498 45.816C66.6764 45.9589 66.5182 46.1357 66.2712 46.3463C66.2712 46.3614 66.2634 46.3689 66.248 46.3689H66.1592C66.0859 46.3689 66.0203 46.3538 65.9624 46.3275C65.9045 46.3125 65.8157 46.2937 65.6999 46.2636C65.5996 46.2485 65.4683 46.2335 65.3062 46.2222C65.148 46.2072 64.9434 46.1996 64.6964 46.1996C64.3027 46.1996 63.7894 46.2297 63.1487 46.2861C62.5079 46.3425 61.709 46.4366 60.7518 46.5607L60.7402 46.5682Z" fill="#4EA7F3"/>
<path d="M60.7554 56.2119C60.5972 56.2119 60.466 56.163 60.3618 56.0652C60.2614 55.9674 60.1803 55.8546 60.1225 55.7267C60.0646 55.5988 60.026 55.4672 60.0028 55.3356C59.9796 55.2002 59.9719 55.0986 59.9719 55.0272C59.9719 54.8279 59.9951 54.6285 60.0375 54.4217C60.08 54.2148 60.1379 54.0343 60.2112 53.8801C60.2691 53.6958 60.3502 53.5191 60.4505 53.3498C60.5509 53.1392 60.713 52.8609 60.9291 52.5224C61.1453 52.1839 61.3962 51.8492 61.6818 51.5258C61.9635 51.1986 62.2723 50.9052 62.6081 50.6457C62.9439 50.3824 63.2913 50.217 63.6541 50.1455C63.7699 50.1455 63.905 50.1718 64.0555 50.2207C64.2099 50.2696 64.3527 50.3373 64.4916 50.4238C64.6306 50.5103 64.7464 50.6119 64.839 50.7322C64.9316 50.8526 64.9818 50.9917 64.9818 51.1459C64.9818 51.2437 64.9625 51.3565 64.9278 51.4731C64.893 51.5935 64.8159 51.7326 64.7001 51.8868C64.4955 52.1689 64.233 52.4321 63.9165 52.6728C63.6386 52.8722 63.2951 53.064 62.8821 53.2445C62.4691 53.4288 61.9712 53.5416 61.3884 53.583C61.373 53.583 61.3576 53.5905 61.346 53.6056C61.3305 53.6206 61.3151 53.6319 61.2919 53.6356C61.2688 53.6432 61.2533 53.6544 61.2379 53.6657C61.1067 53.85 60.9909 54.0268 60.8905 54.196C60.8018 54.3502 60.7246 54.5232 60.6512 54.7075C60.5779 54.8918 60.5432 55.0836 60.5432 55.2792C60.5432 55.4221 60.5625 55.5161 60.5972 55.565C60.6319 55.6139 60.7477 55.6402 60.9368 55.6402C60.9677 55.6402 61.0025 55.6327 61.0449 55.6176C61.1337 55.5913 61.1993 55.5763 61.2418 55.5763C61.3305 55.6064 61.373 55.6402 61.373 55.6816C61.373 55.8245 61.3421 55.9298 61.2765 56.0013C61.2109 56.0727 61.1414 56.1216 61.0681 56.1479C60.9793 56.1893 60.8789 56.2119 60.7632 56.2119H60.7554ZM64.1983 50.8601C64.1829 50.7886 64.125 50.7548 64.0246 50.7548C63.9937 50.7548 63.9706 50.7548 63.9474 50.7661C63.9243 50.7736 63.9011 50.7773 63.8702 50.7773C63.8393 50.7924 63.8123 50.7999 63.7814 50.7999C63.492 50.9692 63.2179 51.1798 62.9632 51.428C62.7085 51.6762 62.4807 51.9207 62.2762 52.1614C62.0446 52.4321 61.8323 52.7217 61.6432 53.0301C61.6432 53.0715 61.6663 53.0941 61.7088 53.0941C61.8246 53.0941 62.0176 53.0414 62.2877 52.9361C62.5579 52.8308 62.832 52.6804 63.1176 52.4886C63.3993 52.2968 63.6502 52.0711 63.8702 51.8078C64.0864 51.5446 64.1983 51.2512 64.1983 50.9278V50.8638V50.8601Z" fill="#4EA7F3"/>
<path d="M66.6489 56.5086C66.4906 56.5086 66.3478 56.4823 66.2243 56.4334C66.1008 56.3845 66.0391 56.3394 66.0391 56.2942C66.0391 56.2642 66.0545 56.2378 66.0815 56.2077C66.097 56.1927 66.1163 56.1852 66.1471 56.1852C66.3517 56.1438 66.5524 56.0761 66.757 55.9821C66.9615 55.8881 67.1507 55.7865 67.3243 55.6737C67.5289 55.5609 67.7219 55.433 67.911 55.2901C68.158 55.1058 68.351 54.9516 68.49 54.8237C68.6289 54.6959 68.7331 54.5868 68.8065 54.4928C68.8798 54.4025 68.9223 54.3273 68.9377 54.2709C68.9531 54.2145 68.9609 54.1731 68.9609 54.143C68.9609 53.9888 68.8219 53.8647 68.5479 53.7707C68.27 53.6804 67.9689 53.5977 67.6447 53.5262C67.3166 53.4548 67.0194 53.3795 66.7492 53.3043C66.4791 53.2253 66.3478 53.1163 66.3478 52.9734C66.3478 52.8304 66.3826 52.7101 66.4559 52.6123C66.5292 52.5145 66.6103 52.428 66.7068 52.3566C66.8033 52.2851 66.9075 52.2212 67.0233 52.1648C67.1391 52.1083 67.2394 52.0519 67.3282 51.9955C67.5173 51.909 67.7643 51.7924 68.0693 51.6345C68.3742 51.4803 68.6714 51.3223 68.9647 51.1681C69.3121 50.9989 69.6749 50.8071 70.0532 50.5965C70.4739 50.3558 70.7865 50.2053 70.9911 50.1414C71.1956 50.0775 71.3307 50.0474 71.404 50.0474C71.6935 50.0474 71.9212 50.1113 72.0795 50.2392C72.2377 50.367 72.3188 50.4648 72.3188 50.5363C72.3188 50.5664 72.2879 50.5927 72.23 50.6228C72.1991 50.6378 72.1798 50.6453 72.1644 50.6453C72.0062 50.6453 71.8942 50.6529 71.8363 50.6679C71.516 50.7394 71.1686 50.8447 70.7904 50.9876C70.4546 51.1004 70.0763 51.2621 69.6479 51.4765C69.2195 51.6871 68.7563 51.9504 68.2622 52.2625C68.1465 52.334 68.05 52.4055 67.9805 52.4732C67.9072 52.5446 67.8415 52.6123 67.7836 52.6762C67.7257 52.7402 67.6949 52.8004 67.6949 52.8568C67.6794 52.9282 67.7914 52.9959 68.0345 53.0599C68.2738 53.1238 68.544 53.2065 68.8412 53.3043C69.1384 53.4021 69.4124 53.53 69.6595 53.6879C69.9065 53.8421 70.0377 54.049 70.0532 54.3047C70.0532 54.474 69.9258 54.6846 69.671 54.9328C69.4163 55.181 69.1114 55.4217 68.7563 55.6549C68.4012 55.8881 68.0307 56.0912 67.6447 56.2604C67.2587 56.4296 66.9307 56.5161 66.6528 56.5161L66.6489 56.5086Z" fill="#4EA7F3"/>
<path d="M73.4269 56.6767C73.4115 56.718 73.3845 56.8083 73.3382 56.9437C73.2957 57.0791 73.2417 57.2107 73.1838 57.3461C73.1259 57.4815 73.0564 57.6056 72.9754 57.7185C72.8943 57.8313 72.821 57.8877 72.7476 57.8877C72.7052 57.8877 72.6666 57.8576 72.6396 57.8012C72.6087 57.7448 72.5894 57.6771 72.574 57.5981C72.5585 57.5191 72.5469 57.4477 72.5431 57.3762C72.5354 57.3048 72.5315 57.2483 72.5315 57.207C72.5315 57.0076 72.5547 56.797 72.5971 56.5714C72.6396 56.3457 72.6897 56.1313 72.7515 55.9358C72.8094 55.7101 72.8827 55.4882 72.9676 55.2776C73.041 55.1084 73.1568 54.8602 73.315 54.533C73.4733 54.2058 73.6547 53.8522 73.8592 53.4724C74.0638 53.0888 74.2799 52.6901 74.5115 52.2726C74.7431 51.8552 74.967 51.464 75.1754 51.0955C75.3838 50.7269 75.5729 50.3997 75.7428 50.1063C75.9087 49.8168 76.0284 49.6061 76.1017 49.4783C76.1326 49.4219 76.1519 49.388 76.1673 49.373C76.1828 49.3579 76.1905 49.3466 76.1905 49.3316L76.1249 49.2677C76.1249 49.2677 76.094 49.2451 76.0824 49.2451C75.6887 49.2865 75.3336 49.3166 75.0133 49.3316C74.6929 49.3466 74.3649 49.3542 74.0329 49.3542C73.8747 49.3391 73.7357 49.2902 73.6199 49.2037C73.5041 49.1172 73.4076 49.0194 73.3382 48.9066C73.2494 48.7787 73.1799 48.6358 73.122 48.4816C73.122 48.4666 73.1297 48.4478 73.1452 48.4177C73.1761 48.3613 73.2185 48.3312 73.2764 48.3312C73.3343 48.3312 73.4231 48.3613 73.5389 48.4177C73.5813 48.4591 73.6547 48.4967 73.755 48.523C73.8438 48.5531 73.9634 48.5719 74.114 48.5869C74.2645 48.602 74.4806 48.6095 74.7585 48.6095C75.1947 48.6095 75.8277 48.5681 76.6537 48.4816C76.6845 48.4967 76.7116 48.4967 76.7424 48.4816C76.7733 48.4816 76.8158 48.4553 76.8737 48.3951C76.9007 48.3688 77.0358 48.1845 77.2751 47.8423C77.5144 47.5038 77.7653 47.0863 78.0277 46.5899C78.186 46.3642 78.3288 46.1499 78.4523 45.9543C78.5758 45.755 78.7109 45.5857 78.8537 45.4428C79.0004 45.2999 79.174 45.1908 79.3786 45.1156C79.5832 45.0366 79.8418 44.999 80.1621 44.999H80.1853C80.2123 44.999 80.2277 45.0216 80.2277 45.063C80.2277 45.093 80.2123 45.1419 80.1853 45.2134C80.1544 45.2849 80.0965 45.3826 80.0116 45.5105C79.9228 45.6384 79.8032 45.8001 79.6526 45.9994C79.4983 46.1988 79.3014 46.4395 79.0544 46.7215C78.9077 46.9058 78.7726 47.0901 78.6414 47.2744C78.5256 47.4286 78.406 47.5978 78.2825 47.7746C78.1589 47.9513 78.0624 48.1055 77.9891 48.2297C77.9891 48.3011 78.0316 48.335 78.1203 48.335C78.2516 48.35 78.4098 48.3425 78.5989 48.3124C78.7572 48.2974 78.954 48.2748 79.1856 48.2372C79.4172 48.2033 79.6951 48.1507 80.0155 48.0792C80.1158 48.0642 80.2239 48.0529 80.3435 48.0378C80.4439 48.0228 80.552 48.0153 80.66 48.0078C80.7681 48.0002 80.88 47.9965 80.9997 47.9965C81.1888 47.9965 81.32 48.019 81.3934 48.0604C81.4204 48.0755 81.459 48.1093 81.5014 48.1657C81.5285 48.2071 81.5593 48.2635 81.5902 48.335C81.6172 48.4064 81.6327 48.4967 81.6327 48.6095C81.6327 48.6396 81.6211 48.6734 81.6018 48.7148C81.5786 48.7562 81.5555 48.7787 81.5246 48.7787C81.4667 48.7787 81.3895 48.7599 81.2969 48.7261C81.2004 48.6922 81.0035 48.6734 80.6986 48.6734C80.2046 48.6734 79.7298 48.7148 79.2705 48.8013C78.8112 48.8878 78.2477 48.963 77.58 49.0345C77.5645 49.0345 77.5452 49.042 77.5144 49.0571C77.4565 49.0871 77.4179 49.1135 77.4063 49.1436C76.8968 49.8657 76.4028 50.6028 75.9242 51.3512C75.5189 51.9868 75.1059 52.6788 74.6929 53.4235C74.2799 54.1681 73.9403 54.8639 73.6778 55.5146C73.6045 55.6274 73.562 55.7816 73.5466 55.9809C73.5312 56.1802 73.4964 56.4134 73.4385 56.6804L73.4269 56.6767Z" fill="#4EA7F3"/>
<path d="M88.6803 57.9102C88.5066 57.9102 88.3908 57.8914 88.3329 57.8576C88.275 57.8237 88.2441 57.7824 88.2441 57.741C88.2441 57.6846 88.2673 57.6357 88.3098 57.5943C88.3252 57.5642 88.3445 57.5379 88.3754 57.5078C88.5799 57.3235 88.7806 57.2107 88.9736 57.1693C89.1705 57.128 89.3249 57.1054 89.4406 57.1054H89.5912C89.6645 57.1355 89.7263 57.1468 89.7764 57.1468H89.9617C91.0386 57.0339 91.9803 56.8421 92.7947 56.5751C93.6091 56.3043 94.2923 56.0373 94.8442 55.7665C95.4965 55.4543 96.0562 55.1234 96.5232 54.7699C96.8706 54.5442 97.1485 54.3298 97.3492 54.1343C97.5537 53.9349 97.7081 53.7544 97.8162 53.5927C97.9243 53.431 97.9937 53.2843 98.0246 53.1564C98.0555 53.0286 98.0671 52.9308 98.0671 52.8593C98.0671 52.5472 97.932 52.2689 97.6618 52.0206C97.3916 51.7724 97.0983 51.5392 96.7779 51.3211C96.4576 51.103 96.1642 50.8924 95.8941 50.693C95.6239 50.4937 95.4888 50.2756 95.4888 50.0349C95.4888 49.922 95.539 49.813 95.6432 49.7039C95.7435 49.5986 95.8632 49.5008 96.0021 49.4181C96.1411 49.3316 96.2762 49.2601 96.4074 49.1962C96.5386 49.1322 96.6313 49.0871 96.6892 49.057C97.052 48.8878 97.4688 48.6659 97.9436 48.3876C98.4145 48.113 98.866 47.8272 99.2945 47.5376C99.7229 47.248 100.086 46.966 100.383 46.6876C100.68 46.4131 100.831 46.1799 100.831 45.9994C100.831 45.8001 100.703 45.6496 100.449 45.5443C100.194 45.439 99.9197 45.3563 99.6303 45.2999C99.2829 45.2435 98.8892 45.2096 98.4531 45.1946C97.3337 45.2096 96.3495 45.2886 95.5004 45.4277C94.6512 45.5707 93.9256 45.7324 93.3312 45.9167C92.6326 46.1273 92.0305 46.3642 91.521 46.6162C91.4477 46.6726 91.3821 46.7027 91.3242 46.7027C91.2817 46.7027 91.2508 46.6801 91.2354 46.6388C91.22 46.6124 91.2123 46.5823 91.2123 46.5523C91.2547 46.4244 91.3126 46.289 91.3859 46.1498C91.4593 46.037 91.5442 45.9204 91.6484 45.8001C91.7487 45.6797 91.88 45.5782 92.0421 45.4917C92.4937 45.3375 93.007 45.1946 93.5898 45.0667C94.0993 44.9539 94.7053 44.8523 95.4116 44.7583C96.1179 44.668 96.9208 44.6191 97.8201 44.6191C98.2987 44.6191 98.7966 44.6379 99.3138 44.6718C99.831 44.7056 100.306 44.7696 100.742 44.8636C101.178 44.9576 101.537 45.078 101.823 45.2246C102.104 45.3751 102.247 45.5594 102.247 45.7888C102.247 45.9317 102.185 46.1273 102.062 46.383C101.938 46.6388 101.606 46.9434 101.07 47.2969C101.085 47.2819 100.823 47.4511 100.286 47.8084C99.7499 48.1619 98.9355 48.6095 97.8471 49.1473C97.7737 49.1887 97.6811 49.2451 97.5653 49.3165C97.4495 49.388 97.3376 49.467 97.2295 49.5497C97.1215 49.6362 97.025 49.7189 96.9478 49.8054C96.8667 49.8919 96.8281 49.9747 96.8281 50.0612C96.8281 50.1326 96.8436 50.2003 96.8706 50.2643C96.8976 50.3282 96.9709 50.4034 97.0867 50.4862C97.1871 50.5727 97.3106 50.6705 97.4572 50.7833C97.7043 50.9826 98.0516 51.2233 98.5032 51.5054C98.6769 51.6182 98.8429 51.7461 99.005 51.889C99.1208 52.0018 99.2327 52.141 99.3446 52.3027C99.4527 52.4644 99.5068 52.6449 99.5068 52.8443C99.5068 52.8856 99.4797 52.9909 99.4296 53.1639C99.3794 53.3332 99.2559 53.5551 99.059 53.8221C98.8622 54.0929 98.5727 54.3938 98.1867 54.736C97.8008 55.0745 97.2604 55.428 96.5618 55.7966C95.8941 56.1652 95.153 56.4961 94.3386 56.7932C93.64 57.049 92.8217 57.2934 91.8761 57.5266C90.9305 57.7598 89.9 57.8914 88.7806 57.9215H88.6726L88.6803 57.9102ZM90.9459 54.4916C91.0347 54.3073 91.1351 54.0929 91.2508 53.8447C91.3666 53.5965 91.494 53.3332 91.633 53.0586C91.7719 52.7841 91.9147 52.4983 92.0691 52.2087C92.2196 51.9191 92.3702 51.6408 92.5168 51.37C92.8642 50.7344 93.227 50.0762 93.6053 49.3955C93.8832 48.9555 94.1032 48.5944 94.2691 48.3124C94.4351 48.0303 94.5625 47.8084 94.6512 47.6542C94.7516 47.4699 94.8249 47.327 94.8674 47.2292C94.9407 47.0863 95.0835 46.9547 95.292 46.8343C95.5004 46.714 95.8169 46.6388 96.2414 46.6124C96.3148 46.6124 96.3997 46.6124 96.5039 46.6237C96.6043 46.6312 96.6544 46.6688 96.6544 46.7403C96.6544 46.8118 96.6428 46.8719 96.6236 46.9208C96.6004 46.9697 96.5116 47.0525 96.3495 47.1653C96.3341 47.1803 96.3148 47.1954 96.2839 47.2067C96.253 47.2217 96.2299 47.2405 96.2067 47.2706C96.1835 47.3007 96.1527 47.3345 96.1102 47.3759C95.8786 47.6467 95.5737 48.0641 95.1955 48.6283C94.8751 49.1097 94.466 49.7641 93.9642 50.5915C93.4625 51.4189 92.8565 52.4907 92.1463 53.8071C91.9996 54.1042 91.8684 54.3787 91.7526 54.6345C91.6523 54.8752 91.548 55.1159 91.4477 55.3566C91.3473 55.5973 91.2817 55.8041 91.2508 55.9734C91.2354 56.0862 91.1852 56.1426 91.1003 56.1426C90.9421 56.1426 90.8224 56.0561 90.7529 55.8869C90.6796 55.7176 90.6449 55.5747 90.6449 55.4619C90.6449 55.2475 90.6951 55.0294 90.7954 54.8037C90.8379 54.6909 90.888 54.5856 90.9498 54.484L90.9459 54.4916Z" fill="#070909"/>
<path d="M101.278 55.5524C101.263 55.5938 101.244 55.6314 101.213 55.6577L101.17 55.6991C101.097 55.6991 101.043 55.6765 101.008 55.6238C100.974 55.5749 100.943 55.5185 100.92 55.4546C100.896 55.3907 100.885 55.3305 100.877 55.2741C100.869 55.2177 100.865 55.1838 100.865 55.1688C100.865 54.913 101.089 54.4542 101.541 53.7885C101.641 53.6494 101.738 53.5102 101.823 53.3748C101.911 53.2394 101.989 53.1153 102.062 53.0025C102.135 52.8746 102.209 52.7618 102.282 52.664C102.776 51.8704 103.081 51.2499 103.197 50.8061C103.313 50.3586 103.37 50.0727 103.37 49.9449V49.8584C103.37 49.8584 103.378 49.8283 103.394 49.817C103.409 49.8057 103.421 49.7907 103.424 49.7756C103.432 49.7606 103.451 49.753 103.479 49.753C103.506 49.753 103.552 49.7681 103.61 49.7944C103.726 49.8245 103.822 49.8659 103.891 49.9223C103.965 49.9637 104.027 50.0238 104.077 50.1028C104.127 50.1818 104.162 50.2833 104.173 50.4112C104.173 50.4676 104.154 50.5654 104.119 50.7083C104.084 50.8512 103.984 51.0769 103.826 51.389C103.826 51.4455 103.841 51.4755 103.868 51.4755C103.884 51.4755 103.903 51.4605 103.934 51.4342C104.196 51.2348 104.463 51.043 104.741 50.8625C104.972 50.7083 105.231 50.5466 105.513 50.3849C105.794 50.2232 106.068 50.084 106.331 49.9712C106.578 49.8584 106.833 49.7606 107.095 49.6741C107.327 49.6026 107.585 49.5349 107.867 49.471C108.149 49.407 108.438 49.377 108.728 49.377H108.751L108.793 49.3995C108.793 49.4409 108.72 49.5048 108.577 49.5913C108.33 49.6628 108.006 49.8019 107.608 50.005C107.207 50.2119 106.759 50.4676 106.257 50.7798C105.756 51.0919 105.227 51.4605 104.667 51.8855C104.108 52.3105 103.544 52.7844 102.977 53.3071C102.703 53.6456 102.448 53.9578 102.213 54.2436C102.008 54.4993 101.819 54.7513 101.645 54.9958C101.471 55.244 101.348 55.432 101.275 55.5599L101.278 55.5524Z" fill="#070909"/>
<path d="M107.905 54.4277C107.905 54.3149 107.944 54.1569 108.025 53.9501C108.106 53.7432 108.195 53.5439 108.299 53.3446C108.415 53.1039 108.554 52.8481 108.712 52.5811C108.785 52.4683 108.851 52.3479 108.909 52.2201C108.967 52.0922 109.025 51.9718 109.082 51.859L109.279 51.4754C109.306 51.4039 109.337 51.3438 109.368 51.2949C109.395 51.246 109.426 51.2009 109.457 51.1557C109.484 51.0993 109.515 51.0504 109.546 51.0091C109.577 50.9526 109.673 50.8962 109.839 50.8398C110.005 50.7834 110.279 50.7533 110.657 50.7533C110.7 50.7684 110.746 50.7872 110.788 50.8172C110.815 50.8473 110.85 50.8737 110.885 50.9037C110.92 50.9338 110.939 50.9602 110.939 50.9902C110.939 51.0617 110.908 51.1256 110.85 51.1821C110.792 51.2385 110.684 51.3287 110.522 51.4566C110.391 51.5845 110.244 51.7612 110.086 51.9869C109.939 52.1862 109.766 52.4382 109.561 52.7504C109.357 53.0625 109.117 53.4574 108.843 53.9388C108.77 54.1645 108.697 54.3638 108.623 54.533C108.55 54.6872 108.48 54.8226 108.415 54.9355C108.349 55.0483 108.287 55.1047 108.229 55.1047C108.172 55.0896 108.114 55.0558 108.056 54.9994C107.955 54.9016 107.905 54.7098 107.905 54.4277ZM112.807 48.162C112.807 48.3313 112.749 48.4742 112.633 48.587C112.518 48.6998 112.394 48.7939 112.263 48.8616C112.105 48.933 111.923 48.9894 111.719 49.0308C111.63 49.0308 111.572 48.9819 111.545 48.8841C111.514 48.8277 111.503 48.7713 111.503 48.7149C111.487 48.6434 111.456 48.5833 111.406 48.5344C111.356 48.4855 111.329 48.4441 111.329 48.4178C111.329 48.3764 111.344 48.3162 111.371 48.2373C111.398 48.1583 111.472 48.0868 111.587 48.0154C111.661 48.0003 111.734 47.9853 111.804 47.974C111.877 47.9589 111.95 47.9514 112.02 47.9439C112.093 47.9364 112.178 47.9326 112.282 47.9326C112.371 47.9326 112.479 47.9439 112.61 47.9627C112.741 47.9853 112.807 48.053 112.807 48.1658V48.162Z" fill="#070909"/>
<path d="M112.24 57.2517C112.14 57.2517 112.059 57.1916 112.001 57.0712C111.943 56.9509 111.897 56.8192 111.858 56.6801C111.823 56.5372 111.796 56.3416 111.781 56.0858C111.781 55.9166 111.8 55.7511 111.835 55.5969C111.87 55.4427 111.92 55.3073 111.978 55.1945C112.036 55.0553 112.101 54.92 112.174 54.7921C112.348 54.4386 112.58 54.0098 112.873 53.5059C113.163 53.0019 113.479 52.4829 113.823 51.9451C114.162 51.4073 114.506 50.8732 114.845 50.3429C115.185 49.8126 115.498 49.335 115.783 48.91C116.065 48.485 116.3 48.139 116.482 47.8682C116.663 47.6012 116.76 47.4583 116.775 47.4432C117.049 47.0183 117.285 46.6497 117.474 46.3375C117.663 46.0254 117.821 45.7659 117.952 45.5515C118.099 45.2958 118.223 45.0852 118.323 44.9159C118.365 44.8745 118.423 44.8256 118.497 44.7692C118.57 44.7391 118.659 44.7091 118.771 44.6752C118.883 44.6414 119.022 44.6226 119.195 44.6226H119.338C119.388 44.6226 119.442 44.6301 119.5 44.6451C119.527 44.6451 119.558 44.6526 119.589 44.6677C119.647 44.6978 119.678 44.7467 119.678 44.8181C119.678 44.8595 119.655 44.9234 119.612 45.0099C119.133 45.7621 118.62 46.4955 118.076 47.2176C117.532 47.9397 116.964 48.7107 116.378 49.5306C115.791 50.3504 115.189 51.2531 114.579 52.2384C113.969 53.2238 113.359 54.3521 112.75 55.627C112.719 55.7248 112.696 55.8451 112.672 55.9881C112.649 56.131 112.626 56.2701 112.595 56.413C112.564 56.556 112.537 56.6876 112.506 56.8155C112.476 56.9433 112.448 57.0336 112.418 57.09L112.375 57.1765C112.344 57.2329 112.302 57.263 112.244 57.263L112.24 57.2517Z" fill="#070909"/>
<path d="M117.099 57.2517C116.999 57.2517 116.918 57.1916 116.86 57.0712C116.802 56.9509 116.756 56.8192 116.717 56.6801C116.682 56.5372 116.655 56.3416 116.64 56.0858C116.64 55.9166 116.659 55.7511 116.694 55.5969C116.729 55.4427 116.779 55.3073 116.837 55.1945C116.895 55.0553 116.96 54.92 117.034 54.7921C117.207 54.4386 117.439 54.0098 117.732 53.5059C118.022 53.0019 118.338 52.4829 118.682 51.9451C119.021 51.4073 119.365 50.8732 119.704 50.3429C120.044 49.8126 120.357 49.335 120.642 48.91C120.924 48.485 121.16 48.139 121.341 47.8682C121.522 47.6012 121.619 47.4583 121.634 47.4432C121.912 47.0183 122.144 46.6497 122.333 46.3375C122.522 46.0254 122.68 45.7659 122.812 45.5515C122.958 45.2958 123.082 45.0852 123.182 44.9159C123.225 44.8745 123.282 44.8256 123.356 44.7692C123.429 44.7391 123.518 44.7091 123.63 44.6752C123.738 44.6414 123.881 44.6226 124.054 44.6226H124.197C124.247 44.6226 124.301 44.6301 124.359 44.6451C124.386 44.6451 124.417 44.6526 124.448 44.6677C124.506 44.6978 124.537 44.7467 124.537 44.8181C124.537 44.8595 124.514 44.9234 124.471 45.0099C123.993 45.7621 123.479 46.4955 122.935 47.2176C122.391 47.9397 121.823 48.7107 121.237 49.5306C120.65 50.3504 120.048 51.2531 119.438 52.2384C118.828 53.2238 118.219 54.3521 117.609 55.627C117.578 55.7248 117.555 55.8451 117.531 55.9881C117.508 56.131 117.485 56.2701 117.454 56.413C117.423 56.556 117.396 56.6876 117.366 56.8155C117.335 56.9433 117.308 57.0336 117.277 57.09L117.234 57.1765C117.203 57.2329 117.161 57.263 117.103 57.263L117.099 57.2517Z" fill="#070909"/>
<path d="M122.067 54.4277C122.067 54.3149 122.105 54.1569 122.187 53.9501C122.268 53.7432 122.356 53.5439 122.461 53.3446C122.576 53.1039 122.715 52.8481 122.874 52.5811C122.947 52.4683 123.013 52.3479 123.07 52.2201C123.128 52.0922 123.186 51.9718 123.244 51.859L123.441 51.4754C123.468 51.4039 123.499 51.3438 123.53 51.2949C123.557 51.246 123.588 51.2009 123.618 51.1557C123.646 51.0993 123.676 51.0504 123.707 51.0091C123.738 50.9526 123.835 50.8962 124.001 50.8398C124.167 50.7834 124.441 50.7533 124.819 50.7533C124.861 50.7684 124.908 50.7872 124.95 50.8172C124.977 50.8473 125.012 50.8737 125.047 50.9037C125.081 50.9338 125.101 50.9602 125.101 50.9902C125.101 51.0617 125.07 51.1256 125.012 51.1821C124.954 51.2385 124.846 51.3287 124.684 51.4566C124.553 51.5845 124.41 51.7612 124.248 51.9869C124.101 52.1862 123.927 52.4382 123.723 52.7504C123.518 53.0625 123.279 53.4574 123.005 53.9388C122.931 54.1645 122.858 54.3638 122.785 54.533C122.711 54.6872 122.642 54.8226 122.576 54.9355C122.511 55.0483 122.449 55.1047 122.391 55.1047C122.333 55.0896 122.275 55.0558 122.217 54.9994C122.117 54.9016 122.067 54.7098 122.067 54.4277ZM126.969 48.162C126.969 48.3313 126.911 48.4742 126.795 48.587C126.679 48.6998 126.556 48.7939 126.424 48.8616C126.266 48.933 126.085 48.9894 125.88 49.0308C125.792 49.0308 125.734 48.9819 125.707 48.8841C125.676 48.8277 125.664 48.7713 125.664 48.7149C125.649 48.6434 125.618 48.5833 125.568 48.5344C125.517 48.4855 125.49 48.4441 125.49 48.4178C125.49 48.3764 125.506 48.3162 125.533 48.2373C125.56 48.1583 125.633 48.0868 125.749 48.0154C125.822 48.0003 125.896 47.9853 125.965 47.974C126.039 47.9589 126.112 47.9514 126.181 47.9439C126.255 47.9364 126.34 47.9326 126.444 47.9326C126.533 47.9326 126.641 47.9439 126.772 47.9627C126.903 47.9853 126.969 48.053 126.969 48.1658V48.162Z" fill="#070909"/>
<path d="M128.744 54.8418C128.462 55.0336 128.219 55.184 128.015 55.2968C127.768 55.4397 127.555 55.5526 127.382 55.6353C127.193 55.7218 127.042 55.7782 126.934 55.8046C126.826 55.8309 126.733 55.8459 126.66 55.8459C126.56 55.8459 126.471 55.8158 126.397 55.7594C126.324 55.703 126.262 55.6391 126.212 55.5676C126.162 55.4962 126.123 55.4209 126.104 55.3457C126.081 55.2667 126.073 55.2141 126.073 55.1878C126.073 55.0035 126.162 54.7515 126.336 54.4356C126.509 54.1159 126.733 53.7699 127 53.3938C127.27 53.0177 127.579 52.6454 127.926 52.2693C128.273 51.8932 128.621 51.551 128.96 51.2388C129.3 50.9266 129.624 50.6747 129.929 50.4753C130.234 50.276 130.489 50.1782 130.693 50.1782C130.782 50.1782 130.89 50.2008 131.021 50.2422C131.153 50.2835 131.284 50.3437 131.415 50.4227C131.546 50.5017 131.658 50.5919 131.755 50.6972C131.847 50.8025 131.898 50.9116 131.898 51.0282C131.898 51.0996 131.874 51.141 131.832 51.1561C131.701 51.1561 131.608 51.126 131.55 51.062C131.492 50.9981 131.338 50.953 131.091 50.9229C130.944 50.9229 130.743 50.9981 130.481 51.1448C130.219 51.2952 129.937 51.487 129.632 51.7277C129.327 51.9684 129.018 52.2392 128.706 52.5363C128.393 52.8334 128.111 53.1305 127.856 53.4277C127.602 53.7248 127.393 54.0031 127.235 54.2663C127.077 54.5296 126.996 54.744 126.996 54.9132C126.996 54.9696 126.996 55.0072 127.007 55.0185C127.015 55.0336 127.054 55.0411 127.127 55.0411C127.316 55.0411 127.675 54.8794 128.208 54.5522C128.736 54.225 129.408 53.7323 130.222 53.0666C130.296 52.9801 130.361 52.9049 130.419 52.8334C130.535 52.6905 130.643 52.5514 130.747 52.4085C130.774 52.3821 130.821 52.352 130.879 52.3219C130.921 52.2919 130.979 52.2693 131.052 52.2467C131.126 52.2242 131.218 52.2166 131.334 52.2166C131.407 52.2166 131.492 52.2242 131.596 52.2392C131.697 52.2542 131.751 52.2881 131.751 52.3445C131.766 52.3746 131.751 52.416 131.708 52.4724C131.651 52.5702 131.504 52.762 131.272 53.044C131.083 53.2847 130.909 53.533 130.747 53.7887C130.601 54.0144 130.462 54.2626 130.323 54.5334C130.184 54.8042 130.08 55.0787 130.006 55.3608C130.006 55.4021 129.999 55.4322 129.983 55.4473C129.968 55.4623 129.952 55.4774 129.941 55.4886C129.929 55.4999 129.91 55.5112 129.898 55.5112C129.782 55.4548 129.709 55.3608 129.682 55.2367C129.651 55.1088 129.64 54.9884 129.64 54.8756C129.64 54.6763 129.663 54.5146 129.705 54.3867C129.736 54.3152 129.763 54.2438 129.794 54.1761C129.794 54.1197 129.779 54.0896 129.752 54.0896C129.736 54.0896 129.728 54.0896 129.728 54.1009C129.728 54.1084 129.721 54.1121 129.705 54.1121L129.682 54.1347C129.346 54.4168 129.037 54.6537 128.756 54.8455L128.744 54.8418Z" fill="#070909"/>
<path d="M137.788 54.4051C137.788 54.3073 137.795 54.2058 137.811 54.108C137.826 54.0102 137.845 53.9237 137.876 53.8523C137.903 53.7658 137.942 53.6905 137.984 53.6191C138.143 53.3934 138.247 53.2242 138.289 53.1189C138.332 53.0136 138.355 52.9459 138.355 52.9158C138.355 52.8744 138.32 52.8519 138.247 52.8519C138.1 52.8519 137.915 52.9271 137.691 53.0737C137.467 53.2204 137.224 53.4009 136.973 53.6153C136.718 53.8259 136.452 54.0629 136.178 54.3261C135.9 54.5894 135.638 54.8263 135.383 55.0369C135.128 55.2476 134.893 55.4318 134.677 55.5785C134.46 55.7252 134.275 55.8004 134.132 55.8004C133.916 55.729 133.777 55.5973 133.719 55.398C133.661 55.1987 133.631 55.052 133.631 54.9504C133.631 54.7511 133.665 54.5292 133.739 54.281C133.812 54.0328 133.897 53.7958 134.001 53.5702C134.117 53.3145 134.248 53.0549 134.395 52.7842C134.553 52.472 134.731 52.1523 134.92 51.8176C135.109 51.4866 135.283 51.1782 135.445 50.8924C135.634 50.5652 135.831 50.2568 136.031 49.9597C136.047 49.9334 136.12 49.8732 136.251 49.7905C136.383 49.704 136.606 49.6626 136.927 49.6626C137.043 49.6626 137.116 49.6701 137.143 49.6852C137.17 49.7002 137.185 49.7265 137.185 49.7717C137.185 49.8431 137.131 49.9823 137.023 50.1966C136.915 50.4073 136.664 50.7645 136.271 51.2572C135.923 51.7236 135.618 52.1561 135.356 52.551C135.124 52.9045 134.916 53.2505 134.734 53.5928C134.553 53.9312 134.46 54.202 134.46 54.4014C134.46 54.5292 134.503 54.5932 134.592 54.5932C134.634 54.5932 134.696 54.5781 134.777 54.5518C134.858 54.5255 134.962 54.454 135.093 54.3412C135.703 53.8598 136.263 53.4273 136.772 53.0474C136.989 52.8782 137.209 52.7165 137.425 52.5585C137.641 52.4043 137.849 52.2652 138.046 52.1448C138.243 52.0245 138.421 51.9267 138.579 51.8477C138.737 51.7687 138.861 51.7311 138.949 51.7311C138.965 51.7311 139.015 51.7386 139.1 51.7537C139.189 51.7687 139.277 51.7913 139.374 51.8289C139.466 51.8627 139.551 51.9116 139.625 51.968C139.698 52.0245 139.733 52.1034 139.733 52.2012C139.733 52.2727 139.698 52.4081 139.625 52.6036C139.551 52.803 139.37 53.085 139.081 53.4536C138.965 53.6529 138.857 53.8447 138.752 54.0253C138.664 54.1795 138.583 54.3525 138.502 54.5367C138.421 54.721 138.374 54.8715 138.359 54.9843C138.359 55.0257 138.351 55.0633 138.336 55.0896C138.305 55.146 138.278 55.1761 138.247 55.1761C138.146 55.1347 138.065 55.0858 138.008 55.0294C137.95 54.973 137.899 54.894 137.857 54.7963C137.815 54.6985 137.791 54.5706 137.791 54.4126L137.788 54.4051Z" fill="#070909"/>
<path d="M142.025 56.6767C142.01 56.718 141.983 56.8083 141.937 56.9437C141.894 57.0791 141.84 57.2107 141.786 57.3461C141.728 57.4815 141.659 57.6056 141.578 57.7185C141.497 57.8313 141.423 57.8877 141.35 57.8877C141.307 57.8877 141.269 57.8576 141.242 57.8012C141.211 57.7448 141.192 57.6771 141.176 57.5981C141.161 57.5191 141.149 57.4477 141.145 57.3762C141.138 57.3048 141.134 57.2483 141.134 57.207C141.134 57.0076 141.157 56.797 141.199 56.5714C141.242 56.3457 141.292 56.1313 141.354 55.9358C141.412 55.7101 141.485 55.4882 141.57 55.2776C141.643 55.1084 141.759 54.8602 141.917 54.533C142.076 54.2058 142.257 53.8522 142.462 53.4724C142.666 53.0888 142.882 52.6901 143.114 52.2726C143.345 51.8552 143.569 51.464 143.778 51.0955C143.99 50.7269 144.179 50.3997 144.345 50.1063C144.511 49.8168 144.631 49.6061 144.704 49.4783C144.731 49.4219 144.754 49.388 144.77 49.373C144.785 49.3579 144.793 49.3466 144.793 49.3316L144.727 49.2677C144.727 49.2677 144.696 49.2451 144.685 49.2451C144.291 49.2865 143.936 49.3166 143.616 49.3316C143.295 49.3466 142.967 49.3542 142.635 49.3542C142.477 49.3391 142.338 49.2902 142.222 49.2037C142.106 49.1172 142.01 49.0194 141.94 48.9066C141.852 48.7787 141.782 48.6358 141.724 48.4816C141.724 48.4666 141.732 48.4478 141.747 48.4177C141.774 48.3613 141.821 48.3312 141.879 48.3312C141.937 48.3312 142.025 48.3613 142.141 48.4177C142.184 48.4591 142.257 48.4967 142.357 48.523C142.446 48.5531 142.566 48.5719 142.716 48.5869C142.871 48.602 143.083 48.6095 143.361 48.6095C143.797 48.6095 144.43 48.5681 145.256 48.4816C145.283 48.4967 145.314 48.4967 145.345 48.4816C145.372 48.4816 145.418 48.4553 145.476 48.3951C145.503 48.3688 145.638 48.1845 145.877 47.8423C146.117 47.5038 146.368 47.0863 146.63 46.5899C146.788 46.3642 146.931 46.1499 147.055 45.9543C147.178 45.755 147.313 45.5857 147.456 45.4428C147.603 45.2999 147.776 45.1908 147.981 45.1156C148.185 45.0366 148.444 44.999 148.764 44.999H148.788C148.815 44.999 148.83 45.0216 148.83 45.063C148.83 45.093 148.815 45.1419 148.788 45.2134C148.757 45.2849 148.699 45.3826 148.614 45.5105C148.525 45.6384 148.405 45.8001 148.255 45.9994C148.104 46.1988 147.904 46.4395 147.657 46.7215C147.51 46.9058 147.375 47.0901 147.244 47.2744C147.128 47.4286 147.008 47.5978 146.885 47.7746C146.761 47.9513 146.665 48.1055 146.591 48.2297C146.591 48.3011 146.634 48.335 146.723 48.335C146.854 48.35 147.012 48.3425 147.201 48.3124C147.359 48.2974 147.556 48.2748 147.788 48.2372C148.019 48.2033 148.297 48.1507 148.618 48.0792C148.718 48.0642 148.83 48.0529 148.946 48.0378C149.046 48.0228 149.154 48.0153 149.262 48.0078C149.37 48.0002 149.482 47.9965 149.598 47.9965C149.787 47.9965 149.918 48.019 149.992 48.0604C150.023 48.0755 150.057 48.1093 150.1 48.1657C150.127 48.2071 150.158 48.2635 150.189 48.335C150.216 48.4064 150.231 48.4967 150.231 48.6095C150.231 48.6396 150.22 48.6734 150.2 48.7148C150.177 48.7562 150.154 48.7787 150.123 48.7787C150.065 48.7787 149.988 48.7599 149.895 48.7261C149.799 48.6922 149.602 48.6734 149.297 48.6734C148.803 48.6734 148.328 48.7148 147.869 48.8013C147.41 48.8878 146.85 48.963 146.178 49.0345C146.163 49.0345 146.144 49.042 146.113 49.0571C146.055 49.0871 146.016 49.1135 146.005 49.1436C145.495 49.8657 145.001 50.6028 144.523 51.3512C144.113 51.9868 143.704 52.6788 143.291 53.4235C142.878 54.1681 142.539 54.8639 142.28 55.5146C142.207 55.6274 142.164 55.7816 142.149 55.9809C142.133 56.1802 142.099 56.4134 142.041 56.6804L142.025 56.6767Z" fill="#070909"/>
<path d="M147.765 57.2517C147.664 57.2517 147.583 57.1916 147.525 57.0712C147.468 56.9509 147.421 56.8192 147.383 56.6801C147.348 56.5372 147.321 56.3416 147.305 56.0858C147.305 55.9166 147.325 55.7511 147.359 55.5969C147.394 55.4427 147.444 55.3073 147.502 55.1945C147.56 55.0553 147.626 54.92 147.699 54.7921C147.873 54.4386 148.104 54.0098 148.398 53.5059C148.687 53.0019 149.004 52.4829 149.347 51.9451C149.687 51.4073 150.03 50.8732 150.37 50.3429C150.71 49.8126 151.022 49.335 151.308 48.91C151.59 48.485 151.825 48.139 152.007 47.8682C152.188 47.6012 152.284 47.4583 152.3 47.4432C152.574 47.0183 152.809 46.6497 152.998 46.3375C153.188 46.0254 153.346 45.7659 153.477 45.5515C153.624 45.2958 153.747 45.0852 153.848 44.9159C153.89 44.8745 153.948 44.8256 154.021 44.7692C154.095 44.7391 154.183 44.7091 154.295 44.6752C154.407 44.6414 154.546 44.6226 154.72 44.6226H154.863C154.913 44.6226 154.967 44.6301 155.025 44.6451C155.052 44.6451 155.083 44.6526 155.114 44.6677C155.171 44.6978 155.202 44.7467 155.202 44.8181C155.202 44.8595 155.179 44.9234 155.137 45.0099C154.658 45.7621 154.145 46.4955 153.601 47.2176C153.056 47.9397 152.489 48.7107 151.902 49.5306C151.316 50.3504 150.714 51.2531 150.104 52.2384C149.494 53.2238 148.884 54.3521 148.274 55.627C148.243 55.7248 148.22 55.8451 148.197 55.9881C148.174 56.131 148.151 56.2701 148.12 56.413C148.089 56.556 148.062 56.6876 148.031 56.8155C148 56.9433 147.973 57.0336 147.942 57.09L147.9 57.1765C147.869 57.2329 147.826 57.263 147.769 57.263L147.765 57.2517Z" fill="#070909"/>
<path d="M156.581 53.8113C156.581 53.7549 156.565 53.7248 156.538 53.7248C156.523 53.7248 156.515 53.7248 156.515 53.7361C156.515 53.7474 156.507 53.7474 156.492 53.7474H156.469C155.917 54.1874 155.446 54.5184 155.064 54.7441C154.678 54.9697 154.361 55.1427 154.114 55.2555C153.825 55.3834 153.582 55.4549 153.396 55.4699C153.25 55.4699 153.134 55.4248 153.049 55.3308C152.96 55.2367 152.895 55.139 152.84 55.0336C152.79 54.9283 152.752 54.8268 152.732 54.7365C152.709 54.6463 152.702 54.5936 152.702 54.5786C152.702 54.0558 152.833 53.5105 153.095 52.9426C153.358 52.3747 153.655 51.8519 153.991 51.3705C154.369 50.8026 154.797 50.261 155.276 49.7345C155.423 49.6217 155.519 49.5465 155.569 49.5126C155.619 49.4788 155.747 49.46 155.951 49.46C155.967 49.46 156.009 49.4637 156.083 49.4712C156.156 49.4788 156.233 49.4938 156.31 49.5126C156.391 49.5352 156.461 49.5577 156.519 49.5878C156.577 49.6179 156.608 49.6593 156.608 49.7157C156.608 49.7721 156.542 49.8436 156.411 49.9263C156.148 50.1106 155.839 50.404 155.484 50.8064C155.129 51.2088 154.79 51.6413 154.469 52.1001C154.149 52.559 153.879 53.0065 153.651 53.439C153.427 53.8715 153.315 54.1987 153.315 54.4281C153.315 54.4996 153.327 54.5598 153.346 54.6087C153.369 54.6576 153.443 54.6839 153.574 54.6839C153.778 54.6839 154.037 54.6087 154.357 54.462C154.678 54.3153 155.01 54.131 155.361 53.9204C155.708 53.7098 156.048 53.4804 156.376 53.2397C156.704 52.999 156.967 52.7809 157.171 52.5815C157.244 52.5251 157.31 52.4537 157.368 52.3709C157.426 52.2995 157.491 52.213 157.565 52.1039C157.638 51.9986 157.715 51.882 157.804 51.7541C157.847 51.7128 157.901 51.6676 157.958 51.6263C158.016 51.5999 158.09 51.5698 158.175 51.5397C158.26 51.5097 158.371 51.4984 158.503 51.4984C158.618 51.4984 158.75 51.5172 158.896 51.551C159.039 51.5849 159.113 51.6601 159.113 51.7729C158.865 52.0851 158.642 52.3784 158.437 52.653C158.232 52.9275 158.032 53.2134 157.827 53.5029C157.623 53.7925 157.418 54.1047 157.206 54.4357C156.994 54.7704 156.762 55.1465 156.507 55.5715C156.252 55.9964 155.963 56.4816 155.635 57.0269C155.307 57.5723 154.932 58.1966 154.512 58.9074C154.481 58.9638 154.396 59.118 154.249 59.3737C154.103 59.6295 153.944 59.9078 153.771 60.2124C153.597 60.5171 153.431 60.8067 153.28 61.085C153.126 61.3595 153.022 61.5476 152.964 61.6491C152.891 61.7619 152.817 61.8183 152.744 61.8183C152.655 61.8183 152.605 61.7582 152.593 61.6378C152.578 61.5175 152.57 61.4272 152.57 61.3708C152.57 61.2429 152.586 61.1113 152.613 60.9797C152.64 60.8443 152.678 60.7051 152.721 60.566C152.81 60.2952 152.933 60.0733 153.103 59.8965C153.269 59.7197 153.381 59.5656 153.439 59.4414C153.612 59.103 153.863 58.6404 154.191 58.0612C154.519 57.482 154.848 56.8953 155.183 56.3086C155.519 55.7219 155.816 55.1916 156.075 54.7177C156.337 54.2439 156.503 53.943 156.577 53.8151L156.581 53.8113Z" fill="#070909"/>
</g>
<defs>
<clipPath id="clip0_1130_5243">
<rect width="160" height="61.8182" fill="white"/>
</clipPath>
</defs>
</svg>
