<svg width="22" height="22" viewBox="0 0 22 22" fill="none" xmlns="http://www.w3.org/2000/svg">
    <path d="M7.54102 6.23047H4.10352C3.74756 6.23047 3.45898 6.51905 3.45898 6.875C3.45898 7.23095 3.74756 7.51953 4.10352 7.51953H7.54102C7.89697 7.51953 8.18555 7.23095 8.18555 6.875C8.18555 6.51905 7.89697 6.23047 7.54102 6.23047Z" fill="#162355"/>
    <path d="M7.54102 9.66797H4.10352C3.74756 9.66797 3.45898 9.95655 3.45898 10.3125C3.45898 10.6685 3.74756 10.957 4.10352 10.957H7.54102C7.89697 10.957 8.18555 10.6685 8.18555 10.3125C8.18555 9.95655 7.89697 9.66797 7.54102 9.66797Z" fill="#162355"/>
    <path d="M7.54102 13.1055H4.10352C3.74756 13.1055 3.45898 13.394 3.45898 13.75C3.45898 14.106 3.74756 14.3945 4.10352 14.3945H7.54102C7.89697 14.3945 8.18555 14.106 8.18555 13.75C8.18555 13.394 7.89697 13.1055 7.54102 13.1055Z" fill="#162355"/>
    <path d="M16.7793 11.8133V5.92883C16.7793 5.07934 16.4517 4.27793 15.857 3.67181L13.2418 0.967398C13.2406 0.966109 13.2393 0.964777 13.238 0.963488C12.6359 0.351184 11.7981 0 10.9394 0H2.64258C1.57639 0 0.708984 0.86741 0.708984 1.93359V18.6484C0.708984 19.7146 1.57639 20.582 2.64258 20.582H12.6042C13.5227 21.46 14.7668 22 16.1348 22C18.9779 22 21.291 19.7062 21.291 16.8867C21.291 14.2837 19.3194 12.1288 16.7793 11.8133ZM1.99805 18.6484V1.93359C1.99805 1.5782 2.28718 1.28906 2.64258 1.28906H10.9394C11.4539 1.28906 11.956 1.49922 12.3173 1.86562L14.9319 4.5696C14.9332 4.57089 14.9344 4.57218 14.9356 4.57342C15.2933 4.93724 15.4902 5.41857 15.4902 5.92887V11.814C12.9739 12.1318 11.0215 14.2856 11.0215 16.8868C11.0215 17.7561 11.2399 18.5754 11.6242 19.293H2.64258C2.28718 19.293 1.99805 19.0038 1.99805 18.6484ZM16.1348 20.7109C14.0261 20.7109 12.3105 18.9954 12.3105 16.8867C12.3105 14.778 14.0261 13.0625 16.1348 13.0625C18.2671 13.0625 20.002 14.778 20.002 16.8867C20.002 18.9954 18.2671 20.7109 16.1348 20.7109Z" fill="#162355"/>
    <path d="M17.6216 15.3603C17.3482 15.1325 16.9418 15.1694 16.7139 15.4428L15.626 16.7483L15.3793 16.2547C15.2201 15.9363 14.8329 15.8072 14.5145 15.9665C14.1961 16.1256 14.0671 16.5128 14.2263 16.8312L14.9138 18.2062C15.0111 18.4007 15.1999 18.5331 15.4159 18.5582C15.4408 18.561 15.4656 18.5625 15.4903 18.5625C15.6803 18.5625 15.8622 18.4784 15.9854 18.3306L17.7042 16.2681C17.932 15.9945 17.8951 15.5881 17.6216 15.3603Z" fill="#162355"/>
    <path d="M10.9785 7.51953H11.666C12.022 7.51953 12.3105 7.23095 12.3105 6.875C12.3105 6.51905 12.022 6.23047 11.666 6.23047H10.9785C10.6226 6.23047 10.334 6.51905 10.334 6.875C10.334 7.23095 10.6226 7.51953 10.9785 7.51953Z" fill="#162355"/>
    <path d="M12.3105 10.3125C12.3105 9.95655 12.022 9.66797 11.666 9.66797H10.9785C10.6226 9.66797 10.334 9.95655 10.334 10.3125C10.334 10.6685 10.6226 10.957 10.9785 10.957H11.666C12.022 10.957 12.3105 10.6685 12.3105 10.3125Z" fill="#162355"/>
</svg>
