<svg width="81" height="81" viewBox="0 0 81 81" fill="none" xmlns="http://www.w3.org/2000/svg">
    <path d="M25.3777 50.7758C11.4883 50.7758 0.238594 39.526 0.238594 25.6367C0.238594 23.2327 0.584251 20.9074 1.21273 18.692C1.6998 16.9951 3.78949 16.618 5.03073 17.8593L17.0975 29.926C17.5689 30.3974 18.2131 30.6645 18.873 30.6645H27.8916C29.2743 30.6645 30.4055 29.5332 30.4055 28.1506V19.1319C30.4055 18.472 30.1384 17.8278 29.6671 17.3565L17.6003 5.2897C16.359 4.04846 16.7518 1.95877 18.433 1.4717C20.6484 0.843221 22.9738 0.497559 25.3777 0.497559C39.267 0.497559 50.5168 11.7473 50.5168 25.6367C50.5168 28.6376 49.9826 31.5286 49.0242 34.1997L77.557 62.7325C79.5525 64.728 80.6837 67.4461 80.6837 70.2743C80.6837 76.1663 75.9073 80.9427 70.0153 80.9427C67.1872 80.9427 64.469 79.8114 62.4736 77.816L33.9407 49.2831C31.2697 50.2573 28.3787 50.7758 25.3777 50.7758ZM68.1142 64.6023C67.1141 64.6023 66.1549 64.9995 65.4478 65.7067C64.7406 66.4139 64.3433 67.373 64.3433 68.3731C64.3433 69.3732 64.7406 70.3324 65.4478 71.0395C66.1549 71.7467 67.1141 72.144 68.1142 72.144C69.1143 72.144 70.0734 71.7467 70.7806 71.0395C71.4877 70.3324 71.885 69.3732 71.885 68.3731C71.885 67.373 71.4877 66.4139 70.7806 65.7067C70.0734 64.9995 69.1143 64.6023 68.1142 64.6023Z" fill="black"/>
</svg>
