<svg width="97" height="102" viewBox="0 0 97 102" fill="none" xmlns="http://www.w3.org/2000/svg">
    <path d="M14.2676 18.8362L16.2126 15.4649C15.449 15.0243 14.5584 14.8563 13.6867 14.9882C12.815 15.1201 12.014 15.5442 11.4149 16.191L14.2676 18.8362ZM3.89936 36.803L0.180474 35.6516C-0.0796802 36.4942 -0.0458339 37.4002 0.276464 38.221C0.598763 39.0418 1.19039 39.7288 1.95433 40.1692L3.89936 36.803ZM3.88898 64.3497L1.94396 60.9784C1.17985 61.4199 0.588559 62.108 0.267163 62.9299C-0.0542336 63.7518 -0.0866322 64.6585 0.175286 65.5012L3.88898 64.3497ZM14.2624 82.3166L11.4097 84.9618C12.0088 85.6086 12.8098 86.0327 13.6815 86.1646C14.5532 86.2965 15.4438 86.1284 16.2075 85.6879L14.2624 82.3166ZM38.1214 96.0873H34.2313C34.2313 97.9027 35.4917 99.4742 37.2604 99.8788L38.1214 96.0873ZM58.8734 96.0977L59.7396 99.8944C60.5994 99.698 61.3669 99.2153 61.9163 98.5255C62.4658 97.8356 62.7645 96.9796 62.7635 96.0977H58.8734ZM82.7376 82.3217L80.7925 85.6931C81.5562 86.1336 82.4468 86.3017 83.3185 86.1698C84.1902 86.0378 84.9912 85.6137 85.5903 84.967L82.7376 82.3217ZM93.1006 64.3446L96.8195 65.496C97.0797 64.6534 97.0458 63.7475 96.7235 62.9266C96.4012 62.1058 95.8096 61.4188 95.0457 60.9784L93.1006 64.3446ZM93.111 36.7979L95.056 40.1692C95.8202 39.7278 96.4114 39.0396 96.7328 38.2177C97.0542 37.3958 97.0866 36.4891 96.8247 35.6464L93.111 36.7979ZM82.7376 18.8259L85.5903 16.1858C84.9912 15.539 84.1902 15.1149 83.3185 14.983C82.4468 14.8511 81.5562 15.0191 80.7925 15.4597L82.7376 18.8259ZM58.8786 5.06548H62.7687C62.7685 4.18447 62.4692 3.32962 61.9199 2.64084C61.3706 1.95207 60.6037 1.47015 59.7448 1.27398L58.8786 5.06548ZM38.1317 5.05511L37.2656 1.25842C36.4058 1.45479 35.6383 1.93747 35.0889 2.62731C34.5394 3.31715 34.2407 4.17321 34.2417 5.05511H38.1317ZM7.61824 37.9545C9.50602 31.8182 12.752 26.186 17.1151 21.4763L11.4097 16.1858C6.25384 21.751 2.41756 28.406 0.18566 35.6568L7.61824 37.9545ZM11.446 71.9742C9.84488 69.2041 8.55754 66.2641 7.60786 63.2087L0.180474 65.5064C1.3 69.1166 2.81872 72.5907 4.70848 75.8643L11.446 71.9742ZM17.1203 79.6817C14.9483 77.3314 13.0451 74.7463 11.446 71.9742L4.70848 75.8643C6.59687 79.1382 8.84451 82.1861 11.4097 84.9618L17.1203 79.6817ZM58.0125 92.3114C51.7539 93.7358 45.2549 93.7322 38.9979 92.301L37.2656 99.884C44.6624 101.577 52.3457 101.583 59.7448 99.8996L58.0125 92.3114ZM89.3921 63.2035C87.5044 69.3398 84.2584 74.972 79.8952 79.6817L85.6006 84.9722C90.7565 79.4069 94.5928 72.752 96.8247 65.5012L89.3921 63.2035ZM85.5643 29.1837C87.193 32.0295 88.4724 34.9514 89.4025 37.9493L96.8299 35.6516C95.7104 32.0413 94.1917 28.5672 92.3019 25.2937L85.5643 29.1837ZM79.8849 21.4763C82.0114 23.774 83.9201 26.3518 85.5591 29.1837L92.3019 25.2937C90.4119 22.0195 88.1573 18.9612 85.5903 16.1858L79.8849 21.4763ZM38.9927 8.8466C45.2513 7.42219 51.7503 7.42574 58.0073 8.85697L59.7448 1.27398C52.348 -0.419392 44.6595 -0.424711 37.2604 1.25842L38.9927 8.8466ZM42.0166 14.6454V5.04992H34.2365V14.6454H42.0166ZM24.5166 20.2574L16.2126 15.4649L12.3226 22.2024L20.6214 26.9949L24.5166 20.2574ZM10.2531 56.1962L1.94915 60.9887L5.83919 67.7263L14.1431 62.9338L10.2531 56.1962ZM14.1431 38.2242L5.84438 33.4369L1.95433 40.1796L10.2531 44.967L14.1431 38.2242ZM42.0218 96.0925V86.5126H34.2417V96.0925H42.0218ZM20.6265 74.163L12.3226 78.9556L16.2126 85.6983L24.5114 80.9006L20.6265 74.163ZM84.6878 78.9556L76.3838 74.163L72.4938 80.9006L80.7925 85.6931L84.6878 78.9556ZM62.7687 96.1029V86.5126H54.9886V96.1081L62.7687 96.1029ZM91.1712 33.4317L82.8672 38.2242L86.7573 44.967L95.056 40.1692L91.1712 33.4317ZM95.0509 60.9836L86.7573 56.191L82.8672 62.9338L91.166 67.7211L95.0509 60.9836ZM62.7687 14.6454V5.06548H54.9886V14.6454H62.7687ZM80.7977 15.4649L72.4938 20.2574L76.3838 27.0001L84.6878 22.2024L80.7977 15.4649ZM54.9886 14.6454C54.9886 25.6257 66.8766 32.4929 76.3838 27.0001L72.4938 20.2574C71.5084 20.8263 70.3906 21.1259 69.2528 21.126C68.1149 21.1261 66.9971 20.8268 66.0116 20.2581C65.0261 19.6894 64.2076 18.8713 63.6383 17.8861C63.0691 16.9009 62.7692 15.7832 62.7687 14.6454H54.9886ZM82.8672 38.2242C73.36 43.7169 73.36 57.441 82.8672 62.9338L86.7573 56.191C85.7718 55.622 84.9534 54.8035 84.3844 53.818C83.8154 52.8324 83.5159 51.7144 83.5159 50.5764C83.5159 49.4384 83.8154 48.3204 84.3844 47.3348C84.9534 46.3493 85.7718 45.5308 86.7573 44.9618L82.8672 38.2242ZM76.3838 74.163C66.8766 68.6703 54.9886 75.5323 54.9886 86.5126H62.7687C62.7692 85.3748 63.0691 84.2571 63.6383 83.2719C64.2076 82.2867 65.0261 81.4686 66.0116 80.8999C66.9971 80.3312 68.1149 80.0318 69.2528 80.032C70.3906 80.0321 71.5084 80.3317 72.4938 80.9006L76.3838 74.163ZM42.0218 86.5126C42.0218 75.5323 30.1338 68.6703 20.6265 74.163L24.5114 80.9006C25.4968 80.3317 26.6198 80.0321 27.7576 80.032C28.8954 80.0318 30.0133 80.3312 30.9988 80.8999C31.9843 81.4686 32.8028 82.2867 33.3721 83.2719C33.9413 84.2571 34.2412 85.3748 34.2417 86.5126H42.0218ZM14.1431 62.9338C23.6504 57.441 23.6504 43.7169 14.1431 38.2242L10.2531 44.967C11.2386 45.536 12.057 46.3545 12.626 47.34C13.195 48.3256 13.4945 49.4436 13.4945 50.5816C13.4945 51.7196 13.195 52.8376 12.626 53.8231C12.057 54.8087 11.2386 55.6272 10.2531 56.1962L14.1431 62.9338ZM34.2417 14.6454C34.2412 15.7832 33.9413 16.9009 33.3721 17.8861C32.8028 18.8713 31.9843 19.6894 30.9988 20.2581C30.0133 20.8268 28.8954 21.1261 27.7576 21.126C26.6198 21.1259 25.502 20.8263 24.5166 20.2574L20.6265 27.0001C30.1338 32.4877 42.0218 25.6257 42.0218 14.6454H34.2417Z" fill="black"/>
</svg>
