<svg width="99" height="74" viewBox="0 0 99 74" fill="none" xmlns="http://www.w3.org/2000/svg">
    <path d="M44.3302 0.497559C41.3208 0.497559 38.8895 2.84205 38.8895 5.74398V6.12107V22.4506C38.8895 23.3687 38.1243 24.1065 37.1722 24.1065C36.5601 24.1065 35.9821 23.7949 35.676 23.2703L27.5149 9.51484C14.9162 15.499 6.24505 28.0085 6.24505 42.4689V52.9618H93.2968V42.0754C93.1438 27.7789 84.5066 15.4499 72.0269 9.51484L63.8658 23.2703C63.5598 23.7949 62.9817 24.1065 62.3696 24.1065C61.4175 24.1065 60.6524 23.3687 60.6524 22.4506V6.12107V5.74398C60.6524 2.84205 58.2211 0.497559 55.2117 0.497559H44.3302ZM3.6267 58.2082C2.06249 58.2082 0.804321 59.4214 0.804321 60.9298C0.804321 61.7003 1.14437 62.4381 1.79045 62.8808C5.47995 65.4876 19.8129 73.9474 49.7709 73.9474C79.729 73.9474 94.0619 65.4876 97.7514 62.8808C98.3975 62.4217 98.7375 61.7003 98.7375 60.9298C98.7375 59.4214 97.4793 58.2082 95.9151 58.2082H3.6267Z" fill="black"/>
</svg>
